<svg width="432" height="432" viewBox="0 0 432 432" fill="none" xmlns="http://www.w3.org/2000/svg">
<path d="M156.83 243.89C181.63 268.75 277.72 270.51 297.26 241.34C307.02 226.76 261.83 190.46 271.73 175.98C273.6 173.24 282.08 174.41 285.01 175.98C289.07 178.15 292.19 187.83 295.22 191.3C301.38 198.34 314.79 219.86 323.31 216C325.68 214.93 323.62 208.18 323.31 205.6C322.54 199.21 319.1 186.73 317.18 180.58C315.47 175.1 312.83 163.41 309.01 159.13C303.46 152.91 287.49 145.78 279.39 143.81C274.43 142.6 263.41 141.29 258.96 143.81C257.02 144.91 255.64 149.64 254.36 151.47C253.43 152.81 251.9 156.42 250.27 156.58C246.93 156.9 240.67 151.19 240.06 147.9C239.07 142.62 249.12 134.25 250.27 129.01C251.12 125.14 250.03 117.07 249.25 113.18C248.32 108.55 245.42 99.43 243.12 95.31C240.47 90.55 229.33 78.46 229.33 78.46C229.33 78.46 216.92 101.57 213.5 109.61C210.75 116.08 207.09 129.71 204.31 136.16C202.89 139.46 200.67 146.93 197.67 148.93C195.11 150.63 188.48 149.71 185.41 149.95C182.09 150.22 175.43 151.44 172.13 150.97C169.97 150.66 166.14 148.07 163.96 147.91C160.31 147.64 152.81 149.11 149.66 150.97C147.48 152.26 144.75 156.78 143.02 158.63C138.59 163.39 129.23 172.42 124.64 177.01C122.6 179.05 118.07 182.77 116.47 185.18C113.11 190.23 109.06 201.85 107.28 207.65C105.82 212.39 103.19 227.05 103.19 227.05C103.19 227.05 105.37 243.12 109.83 243.9C118.97 245.5 130.32 224.37 134.34 216.01C136.89 210.71 135.16 197.73 138.43 192.84C142.13 187.31 154.32 177.49 160.9 178.54C162.69 178.83 164.96 182.42 165.5 184.16C166.91 188.68 165.09 198.45 163.97 203.05C162.95 207.22 158.22 214.68 157.33 218.88C156.03 225 152.4 239.47 156.82 243.9L156.83 243.89Z" fill="#174888" stroke="#231F20" stroke-width="2" stroke-miterlimit="10"/>
<path d="M208.4 171.64C210.44 171.64 235.97 191.55 235.21 192.83C234.45 194.11 203.04 207.64 199.72 207.38C196.4 207.12 172.66 203.29 172.66 203.29L186.45 179.29L208.41 171.63L208.4 171.64Z" fill="#5A87C5"/>
<path d="M216 161.17L239.04 156.32L256.4 166.02V179.81L229.85 181.85L210.96 167.04L216 161.17Z" fill="#5A87C5"/>
<path d="M255.38 189.51L260.74 174.45L268.15 179.81L278.87 204.32L281.17 213.77L263.04 207.39L255.38 189.51Z" fill="#5A87C5"/>
<path d="M180.83 216L210.96 211.98L235.23 226.02L224.23 239.55L169.6 238.53L167.04 225.77L180.83 216Z" fill="#5A87C5"/>
<path d="M221.43 210.7L240.83 192.83H251.3L262.28 213.77L252.32 225.77H237.51L221.43 210.7Z" fill="#5A87C5"/>
<path d="M256.4 227.55L268.28 211.98L283.47 219.77L285.26 231.64L269.68 239.55L256.4 227.55Z" fill="#5A87C5"/>
<path d="M214.25 74.74L208.05 102.32" stroke="#231F20" stroke-width="2" stroke-miterlimit="10"/>
<path d="M210.32 67.8499L201.13 103.85" stroke="#231F20" stroke-width="2" stroke-miterlimit="10"/>
<path d="M242.49 71.74L256.79 109.02" stroke="#231F20" stroke-width="2" stroke-miterlimit="10"/>
<path d="M249.64 63.8699L262.46 103.29" stroke="#231F20" stroke-width="2" stroke-miterlimit="10"/>
<path d="M295.72 198.7L308.23 235.72" stroke="#231F20" stroke-width="2" stroke-miterlimit="10"/>
<path d="M313.09 216L323.3 246.19" stroke="#231F20" stroke-width="2" stroke-miterlimit="10"/>
<path d="M142.28 213.77L137.94 249.26" stroke="#231F20" stroke-width="2" stroke-miterlimit="10"/>
<path d="M133.25 233.55L126.36 264.96" stroke="#231F20" stroke-width="2" stroke-miterlimit="10"/>
<path d="M216.64 71.74C217.66 60.83 226.79 54.64 233.3 56.23C237.93 57.36 241.69 62.54 242.49 68.87" stroke="#231F20" stroke-width="2" stroke-miterlimit="10"/>
<path d="M210.32 65.0399C211 52.0799 221.81 43.2099 231.77 44.3599C239.15 45.2099 245.74 51.5199 247.86 60.0599" stroke="#231F20" stroke-width="2" stroke-miterlimit="10"/>
<path d="M319.59 31.72H123.27C107.58 31.72 94.86 44.4396 94.86 60.13V248.1C94.86 263.79 107.58 276.51 123.27 276.51H319.59C335.28 276.51 348 263.79 348 248.1V60.13C348 44.4396 335.28 31.72 319.59 31.72Z" stroke="#231F20" stroke-width="4.73" stroke-miterlimit="10"/>
</svg>
